HIERARCHY
ROOT Hips
{
    OFFSET 0.000000 0.000000 0.000000
    CHANNELS 6 Xposition Yposition Zposition Zrotation Xrotation Yrotation
    JOINT Spine
    {
        OFFSET -0.000000 0.077018 0.000000
        CHANNELS 3 Zrotation Xrotation Yrotation
        JOINT Spine1
        {
            OFFSET -0.000000 0.227494 0.000000
            CHANNELS 3 Zrotation Xrotation Yrotation
            JOINT Neck
            {
                OFFSET -0.000000 0.246279 0.000000
                CHANNELS 3 Zrotation Xrotation Yrotation
                JOINT Head
                {
                    OFFSET -0.000000 0.145582 0.018785
                    CHANNELS 3 Zrotation Xrotation Yrotation
                    End Site
                    {
                        OFFSET -0.000000 0.187848 0.000000
                    }
                }
            }
            JOINT LeftShoulder
            {
                OFFSET 0.037687 0.203731 -0.002326
                CHANNELS 3 Zrotation Xrotation Yrotation
                JOINT LeftArm
                {
                    OFFSET 0.129096 0.000000 0.000000
                    CHANNELS 3 Zrotation Xrotation Yrotation
                    JOINT LeftForeArm
                    {
                        OFFSET 0.264347 0.000000 0.000000
                        CHANNELS 3 Zrotation Xrotation Yrotation
                        JOINT LeftHand
                        {
                            OFFSET 0.234160 0.000000 0.000000
                            CHANNELS 3 Zrotation Xrotation Yrotation
                            End Site
                            {
                                OFFSET 0.140886 0.000000 0.000000
                            }
                        }
                    }
                }
            }
            JOINT RightShoulder
            {
                OFFSET -0.037440 0.203731 -0.002326
                CHANNELS 3 Zrotation Xrotation Yrotation
                JOINT RightArm
                {
                    OFFSET -0.129096 0.000000 0.000000
                    CHANNELS 3 Zrotation Xrotation Yrotation
                    JOINT RightForeArm
                    {
                        OFFSET -0.264347 0.000000 0.000000
                        CHANNELS 3 Zrotation Xrotation Yrotation
                        JOINT RightHand
                        {
                            OFFSET -0.234160 0.000000 0.000000
                            CHANNELS 3 Zrotation Xrotation Yrotation
                            End Site
                            {
                                OFFSET -0.140886 0.000000 0.000000
                            }
                        }
                    }
                }
            }
        }
    }
    JOINT LeftUpLeg
    {
        OFFSET 0.093924 0.000000 0.000000
        CHANNELS 3 Zrotation Xrotation Yrotation
        JOINT LeftLeg
        {
            OFFSET -0.000000 -0.358527 0.000000
            CHANNELS 3 Zrotation Xrotation Yrotation
            JOINT LeftFoot
            {
                OFFSET -0.000000 -0.390599 0.000000
                CHANNELS 3 Zrotation Xrotation Yrotation
                JOINT LeftToeBase
                {
                    OFFSET -0.000000 -0.061050 0.140886
                    CHANNELS 3 Zrotation Xrotation Yrotation
                    End Site
                    {
                        OFFSET -0.000000 0.000000 0.037570
                    }
                }
            }
        }
    }
    JOINT RightUpLeg
    {
        OFFSET -0.093924 0.000000 0.000000
        CHANNELS 3 Zrotation Xrotation Yrotation
        JOINT RightLeg
        {
            OFFSET -0.000000 -0.358527 0.000000
            CHANNELS 3 Zrotation Xrotation Yrotation
            JOINT RightFoot
            {
                OFFSET -0.000000 -0.390599 0.000000
                CHANNELS 3 Zrotation Xrotation Yrotation
                JOINT RightToeBase
                {
                    OFFSET -0.000000 -0.061050 0.140886
                    CHANNELS 3 Zrotation Xrotation Yrotation
                    End Site
                    {
                        OFFSET -0.000000 0.000000 0.037570
                    }
                }
            }
        }
    }
}
MOTION
Frames:    13
Frame Time:    0.008333
1.014484    0.821370    -0.507114    -1.935543    -3.839318    -68.212135    0.196102    -0.051270    -2.260302    1.919171    9.570163    -0.915613    -4.886715    11.097378    5.935122    1.714751    22.726151    4.449052    4.996194    0.354530    3.430865    -77.412041    30.915298    2.948802    5.648206    -13.595683    -38.008381    1.266549    1.044152    10.034005    -1.896300    1.261596    -4.670659    79.337044    44.130215    -4.554878    -9.028298    -29.224787    33.442379    -5.132431    0.726941    -9.868300    3.057760    -16.697918    10.460043    3.101285    69.232399    13.594040    -7.016240    -0.680174    2.408158    -0.708250    -5.719993    0.901519    2.174681    -7.091792    -7.103734    4.287949    19.791649    -1.385995    -10.916471    -9.608621    -6.452378    -0.095234    -2.818200    -0.674540    
1.010313    0.822148    -0.503904    -2.155742    -3.914312    -69.388489    0.216015    0.115285    -2.205224    1.771926    9.518168    -0.883991    -4.957359    11.196131    6.135511    1.605242    22.845581    4.668921    5.041351    0.325638    3.428377    -77.141273    30.615225    2.967588    5.257638    -13.088606    -37.850464    1.350866    0.863484    9.948476    -1.885581    1.240816    -4.639230    79.207458    44.368916    -4.345947    -8.994048    -29.307951    34.197216    -5.180951    0.734998    -9.732348    2.940635    -17.308052    10.221424    4.073888    68.806030    12.195541    -7.376538    -1.226141    2.123113    -0.711239    -5.677677    0.925775    2.182352    -6.398925    -6.315841    4.282800    19.497347    -0.899089    -10.906013    -9.696472    -6.720951    -0.115105    -2.743412    -0.469359    
1.006204    0.822892    -0.500731    -2.324345    -4.009364    -70.574768    0.149014    0.210734    -2.093356    1.695686    9.504944    -0.840065    -5.006564    11.305089    6.289419    1.457960    22.963068    4.857669    5.049211    0.291189    3.394334    -77.412155    30.908133    3.270649    5.654884    -13.619567    -37.702705    1.158964    1.101392    10.049036    -1.896834    1.200358    -4.610272    79.117554    44.485191    -4.197206    -9.031407    -29.279402    34.932232    -5.123073    0.584813    -9.622711    2.784927    -17.888527    9.955395    4.881778    68.159088    10.775380    -7.707115    -1.692624    2.050988    -0.787826    -5.874140    1.165630    2.115458    -5.758613    -5.454142    4.267346    19.199492    -0.433712    -10.825546    -9.717285    -6.821824    -0.113316    -2.711670    -0.466564    
1.002007    0.823544    -0.497635    -2.529941    -4.053099    -71.759209    0.112630    0.305682    -2.000768    1.678303    9.526413    -0.808004    -5.123493    11.395935    6.461730    1.321088    23.045586    5.047598    5.005828    0.272425    3.391467    -77.176498    30.654640    3.265481    5.406620    -13.262753    -37.521038    1.262856    1.088828    10.012112    -1.945234    1.140622    -4.621274    79.025879    44.686375    -4.059139    -9.030155    -29.310408    35.700638    -5.163423    0.669855    -9.689295    2.657152    -18.413092    9.835696    6.183606    67.449852    9.141868    -8.231204    -2.128399    1.690787    -0.744611    -5.771286    1.027549    2.118035    -5.116391    -4.620319    4.183909    18.936932    -0.068380    -10.712976    -9.762658    -6.775990    -0.108722    -2.686965    -0.490556    
0.997779    0.824201    -0.494484    -2.722699    -4.117910    -72.946411    0.090600    0.396031    -1.921242    1.573908    9.537878    -0.772879    -5.192842    11.473245    6.650428    1.170930    23.173275    5.270047    5.016853    0.245592    3.414215    -77.147400    30.612637    3.369210    5.474878    -13.160734    -37.273922    1.243479    1.055015    10.002784    -1.952235    1.098534    -4.584812    78.935509    44.809441    -3.930775    -8.999175    -29.333002    36.449642    -5.054449    0.616787    -9.636346    2.643981    -18.818449    9.454535    6.137381    66.559120    8.524150    -8.554489    -2.578932    1.629467    -0.756745    -5.806683    1.064301    2.063223    -4.482681    -3.787692    4.049216    18.613928    0.238649    -10.549147    -9.958056    -6.815427    -0.118606    -2.446262    -0.281118    
0.993541    0.824769    -0.491397    -2.907891    -4.141921    -74.132111    0.107920    0.486724    -1.834332    1.445543    9.504914    -0.732830    -5.249969    11.605160    6.810894    1.040865    23.228260    5.458085    5.035130    0.287534    3.418759    -77.054062    30.498186    3.406073    5.484498    -13.005653    -37.040619    1.241082    1.063301    10.034873    -1.908746    1.110839    -4.575186    78.761971    44.930519    -3.769979    -8.959430    -29.254375    37.219215    -5.181491    0.665695    -9.647197    2.520845    -19.245642    9.264326    6.991726    65.494110    7.428061    -9.027394    -2.915621    1.274012    -0.751951    -5.769114    1.056745    2.047101    -3.909196    -3.020782    3.928125    18.407858    0.576099    -10.446966    -10.012514    -6.708781    -0.117453    -2.486285    -0.311503    
0.989420    0.825291    -0.488267    -3.058847    -4.184451    -75.335701    0.086220    0.545718    -1.726934    1.335073    9.499877    -0.687715    -5.311044    11.699529    6.963526    0.905709    23.308815    5.640243    5.064421    0.290315    3.428914    -77.062286    30.459303    3.496376    5.531623    -13.077686    -36.837669    1.108325    1.146425    10.139119    -1.879139    1.096908    -4.577493    78.623024    45.121017    -3.650015    -8.997439    -29.252831    37.943512    -5.001222    0.483219    -9.642575    2.452580    -19.582716    8.978323    7.074290    64.275520    7.223605    -9.268803    -3.249705    0.780835    -0.701685    -5.715821    0.877279    1.954057    -3.364303    -1.992645    3.919504    18.156960    0.534065    -10.221886    -10.119721    -6.468043    -0.108869    -2.350207    -0.308677    
0.985275    0.825780    -0.485202    -3.192658    -4.193952    -76.529259    0.063475    0.578182    -1.635722    1.265694    9.498677    -0.651487    -5.378784    11.791063    7.142895    0.753499    23.377092    5.854285    5.065027    0.255561    3.460859    -76.995018    30.264915    3.548732    5.525945    -12.826306    -36.516171    1.227440    1.194159    10.133297    -1.858225    1.068421    -4.551888    78.408653    45.162975    -3.519582    -8.850211    -29.116482    38.696167    -5.132253    0.528553    -9.538804    2.394486    -19.947271    8.650150    7.123977    62.964729    6.687160    -9.361856    -3.682285    0.719545    -0.688046    -5.638278    0.847698    1.863008    -2.911763    -1.293880    3.863223    18.086355    1.135090    -10.160129    -10.195348    -6.563608    -0.103916    -2.314921    -0.329661    
0.981165    0.826239    -0.482029    -3.319700    -4.215297    -77.738190    0.050918    0.625746    -1.536456    1.172251    9.469190    -0.610474    -5.455441    11.862868    7.296698    0.596328    23.499262    6.042137    5.062923    0.275403    3.482069    -76.988365    30.191183    3.625060    5.591904    -12.802951    -36.246124    1.215849    1.183801    10.177416    -1.842322    1.040119    -4.529795    78.266914    45.342495    -3.448526    -8.841117    -29.066359    39.342117    -5.213044    0.471236    -9.437584    2.321959    -20.264072    8.402408    7.244008    61.556255    6.259214    -9.350088    -4.077943    0.437090    -0.685991    -5.592365    0.853528    1.740635    -2.529888    -0.644859    3.725697    18.088877    1.467479    -9.972887    -10.338997    -6.313349    -0.101270    -2.247159    -0.315290    
0.977194    0.826699    -0.478967    -3.394467    -4.217682    -78.949265    0.034725    0.648859    -1.447780    1.084730    9.411027    -0.573120    -5.605039    11.937627    7.514249    0.571998    23.572760    6.235127    5.067625    0.307001    3.524368    -76.966743    30.036207    3.689792    5.636309    -12.687523    -35.988197    1.217925    1.184602    10.176961    -1.869997    1.059243    -4.514384    78.089417    45.446667    -3.259807    -8.806901    -28.922653    39.919151    -5.275287    0.471461    -9.357940    2.266680    -20.584894    8.029960    6.994980    60.024502    5.936712    -8.962305    -4.420032    0.503013    -0.738976    -5.773891    1.004851    1.594823    -2.258490    0.055350    3.658246    18.190449    1.974504    -9.820395    -10.346652    -6.185067    -0.095582    -2.373156    -0.426899    
0.972905    0.827080    -0.476019    -3.546243    -4.162092    -80.176743    0.039188    0.689253    -1.341398    1.059483    9.419089    -0.535608    -5.696433    11.994117    7.654374    0.411498    23.657539    6.407515    5.053036    0.384155    3.625195    -76.871063    29.896650    3.621397    5.470826    -12.797109    -35.772015    1.166532    1.262595    10.365337    -1.862092    0.986467    -4.500264    77.914246    45.563351    -3.214123    -8.612040    -28.909723    40.557278    -5.410529    0.616684    -9.296965    2.320630    -20.789770    7.762640    6.954039    58.449390    5.389249    -8.854628    -4.840346    0.550075    -0.740235    -5.750816    1.016598    1.549685    -1.920537    0.690727    3.451273    18.248722    2.579537    -9.629014    -10.424082    -6.172004    -0.095689    -2.365670    -0.422058    
0.968904    0.827464    -0.473071    -3.639596    -4.111863    -81.411331    0.104925    0.714178    -1.235092    0.878815    9.384076    -0.484971    -5.680882    12.104936    7.814354    0.191050    23.663948    6.643356    5.058493    0.391180    3.588889    -76.854164    29.778675    3.780412    5.598849    -12.702407    -35.498325    1.256574    1.143359    10.324769    -1.784364    0.970476    -4.478921    77.674194    45.722420    -3.068246    -8.565795    -28.771248    41.085770    -5.527629    0.588862    -9.284709    2.350314    -20.999125    7.448317    6.824525    56.725647    4.880764    -8.677792    -5.154102    0.625792    -0.755990    -5.757951    1.075742    1.466904    -1.733495    1.284188    3.254785    18.430462    3.163794    -9.452944    -10.530033    -6.113449    -0.100340    -2.310005    -0.355546    
0.964884    0.827767    -0.470193    -3.706884    -4.036977    -82.625961    0.096600    0.685962    -1.165969    0.872047    9.397040    -0.461599    -5.799500    12.191238    8.007327    0.054127    23.679380    6.854740    5.043427    0.363545    3.599406    -76.913269    29.606226    3.936729    5.605313    -12.707128    -35.248379    1.329333    1.130345    10.345052    -1.810834    0.943340    -4.405449    77.422165    45.719681    -2.887904    -8.504063    -28.477604    41.539642    -5.654779    0.573639    -9.226742    2.387399    -21.198421    7.233789    6.923242    54.898617    4.366767    -8.620564    -5.387861    0.452890    -0.767679    -5.816354    1.104038    1.414729    -1.606243    1.753379    3.021154    18.711994    3.826488    -9.274061    -10.725323    -6.055654    -0.111082    -2.216728    -0.221895    
